# xmcd
#
# Track frame offsets:
#	150
#	21330
#	44385
#	70670
#	98645
#	115035
#	144610
#	169980
#	197385
#	217735
#	235050
#	258300
#	278600
#	300000
#	323525
#
# Disc length: 4606 seconds
#
# Revision: 3
# Processed by: cddbd v1.5.1PL0 Copyright (c) Steve Scherf et al.
# Submitted via: EasyCDDAExtractor 5.1.0
#
DISCID=ba11fc0f
DTITLE=Ozzy Osbourne - Rosement Horizon Chicago 24-01-82
DYEAR=1982
DGENRE=Hard Rock
TTITLE0=Over The Mountain
TTITLE1=Mr Crowley
TTITLE2=Crazy Train
TTITLE3=Revelation (Mother Earth)
TTITLE4=Steal Away (The Night)
TTITLE5=Suicide Solution
TTITLE6=Guitar Solo
TTITLE7=Drum Solo - Goodbye To Romance
TTITLE8=I Don't Know
TTITLE9=No Bone Movies
TTITLE10=Believer
TTITLE11=Flying High Again
TTITLE12=Iron Man
TTITLE13=Children Of The Grave
TTITLE14=Paranoid
EXTD=
EXTT0=
EXTT1=
EXTT2=
EXTT3=
EXTT4=
EXTT5=
EXTT6=
EXTT7=
EXTT8=
EXTT9=
EXTT10=
EXTT11=
EXTT12=
EXTT13=
EXTT14=
PLAYORDER=
